<?xml version="1.0" ?><!DOCTYPE svg  PUBLIC '-//W3C//DTD SVG 1.1//EN'  'http://www.w3.org/Graphics/SVG/1.1/DTD/svg11.dtd'><svg enable-background="new 0 0 128 128" id="Слой_1" version="1.1" viewBox="0 0 128 128" xml:space="preserve" xmlns="http://www.w3.org/2000/svg" xmlns:xlink="http://www.w3.org/1999/xlink"><g><path d="M96.5,46.4L92.9,50c-2.2,2.2-3.4,5.1-3.4,8.1v21.7c0,3.1,1.2,6,3.4,8.1l3.7,3.7c0.7,0.7,1.5,1,2.5,1   c0.9,0,1.8-0.3,2.4-1c0.7-0.7,1.1-1.6,1.1-2.5V48.8c0-1.9-1.6-3.5-3.5-3.5C98.1,45.3,97.2,45.7,96.5,46.4z M99.5,48.8v40.3   c0,0.1,0,0.3-0.1,0.4c-0.1,0.1-0.2,0.1-0.4,0.1c-0.1,0-0.2,0-0.3-0.2L95,85.9c-1.6-1.6-2.5-3.7-2.5-6V58.1c0-2.3,0.9-4.4,2.5-6   l3.7-3.7c0.1-0.1,0.2-0.2,0.3-0.2C99.1,48.3,99.5,48.4,99.5,48.8z" fill="#4A374F"/><path d="M59,30.5c3.6,0,6.5-2.9,6.5-6.5s-2.9-6.5-6.5-6.5s-6.5,2.9-6.5,6.5S55.4,30.5,59,30.5z M59,20.5   c1.9,0,3.5,1.6,3.5,3.5s-1.6,3.5-3.5,3.5s-3.5-1.6-3.5-3.5S57.1,20.5,59,20.5z" fill="#4A374F"/><path d="M41.5,125.5c0.8,0,1.5-0.7,1.5-1.5V95.5h31c6.3,0,11.5-5.2,11.5-11.5V54c0-6.3-5.2-11.5-11.5-11.5h-4.1   c6.3-3.7,10.6-10.6,10.6-18.5c0-11.9-9.6-21.5-21.5-21.5c-11.5,0-20.9,9.1-21.4,20.4c-2.6-3.3-6.6-5.4-11.1-5.4   c-7.7,0-14,6.3-14,14c0,5.1,2.7,9.6,6.8,12c-4,1.8-6.8,5.8-6.8,10.5v30c0,6.3,5.2,11.5,11.5,11.5h6V114c0,0.8,0.7,1.5,1.5,1.5   s1.5-0.7,1.5-1.5V95.5h7V124C40,124.8,40.7,125.5,41.5,125.5z M59,5.5c10.2,0,18.5,8.3,18.5,18.5S69.2,42.5,59,42.5   S40.5,34.2,40.5,24S48.8,5.5,59,5.5z M48.1,42.5h-13c2.5-2,4.4-4.8,5.1-8.1C42.1,37.8,44.8,40.5,48.1,42.5z M15.5,31.5   c0-6.1,4.9-11,11-11s11,4.9,11,11s-4.9,11-11,11S15.5,37.6,15.5,31.5z M15.5,84V54c0-4.7,3.8-8.5,8.5-8.5h50c4.7,0,8.5,3.8,8.5,8.5   v30c0,4.7-3.8,8.5-8.5,8.5H24C19.3,92.5,15.5,88.7,15.5,84z" fill="#4A374F"/></g></svg>